<?xml version="1.0" standalone="no"?>
<!DOCTYPE svg PUBLIC "-//W3C//DTD SVG 20010904//EN"
 "http://www.w3.org/TR/2001/REC-SVG-20010904/DTD/svg10.dtd">
<svg version="1.0" xmlns="http://www.w3.org/2000/svg"
 width="1280.000000pt" height="1280.000000pt" viewBox="0 0 1280.000000 1280.000000"
 preserveAspectRatio="xMidYMid meet">

<g transform="translate(0.000000,1280.000000) scale(0.100000,-0.100000)"
fill="#000000" stroke="none">
<path d="M5965 11504 c-16 -3 -86 -11 -155 -19 -585 -72 -1126 -234 -1665
-500 -423 -209 -739 -417 -1091 -721 -150 -130 -403 -386 -523 -530 -46 -54
-90 -108 -100 -119 -172 -206 -349 -467 -514 -756 -86 -151 -228 -463 -297
-649 -164 -448 -253 -845 -315 -1405 -49 -447 -7 -1018 111 -1525 74 -317 195
-688 298 -915 13 -27 29 -67 37 -87 7 -21 16 -38 20 -38 4 0 9 226 12 503 7
643 30 901 123 1377 64 330 169 678 298 995 54 131 59 141 201 425 18 36 130
226 170 290 87 138 279 402 367 505 72 84 173 188 388 399 621 611 895 823
1377 1065 89 44 164 81 167 81 3 0 29 11 58 24 29 13 85 35 123 49 39 14 81
30 95 35 14 6 91 31 171 57 80 25 160 55 178 66 36 22 37 24 82 174 18 61 40
128 50 150 9 22 25 60 34 85 10 25 24 61 32 80 8 19 18 44 22 55 8 18 57 130
101 230 77 173 191 392 278 536 45 75 41 84 -38 85 -36 1 -78 0 -95 -2z"/>
<path d="M6900 11481 c0 -14 17 -25 168 -105 79 -42 151 -81 160 -86 9 -5 87
-50 172 -101 698 -414 1269 -917 1736 -1529 188 -246 458 -706 563 -960 119
-287 182 -473 250 -748 22 -86 51 -197 64 -247 58 -214 108 -410 122 -477 102
-499 117 -1088 39 -1523 -14 -78 -76 -351 -89 -395 -3 -9 5 -27 18 -40 12 -14
61 -70 107 -125 47 -55 92 -107 100 -116 22 -23 51 -59 84 -104 17 -22 33 -42
36 -45 12 -11 180 -240 242 -330 55 -80 164 -254 203 -325 31 -57 78 -125 85
-125 20 0 60 81 205 415 124 287 252 776 314 1205 53 364 35 1163 -34 1599
-14 87 -72 335 -95 406 -6 17 -25 82 -44 145 -61 203 -141 424 -208 570 -11
25 -32 70 -45 100 -64 143 -158 323 -223 430 -183 301 -264 418 -454 654 -17
22 -36 44 -41 50 -6 6 -37 43 -69 81 -68 82 -283 303 -412 425 -196 184 -398
345 -584 465 -58 37 -118 76 -133 87 -116 81 -761 408 -803 408 -4 0 -32 11
-63 24 -156 68 -476 173 -611 200 -560 115 -760 146 -760 117z"/>
<path d="M5345 9755 c-122 -33 -418 -160 -625 -268 -353 -184 -857 -612 -1043
-886 -162 -238 -390 -840 -488 -1288 -51 -234 -63 -359 -63 -683 -1 -373 17
-511 94 -727 7 -18 19 -33 27 -33 12 0 102 68 133 100 7 7 174 156 224 201 22
18 65 57 95 84 31 28 83 73 116 100 33 28 62 53 65 56 7 7 389 331 460 389 30
25 61 50 68 57 7 7 41 34 75 60 54 41 131 102 189 149 10 7 59 46 110 85 120
93 165 140 177 186 6 21 27 148 46 283 20 135 45 301 56 370 11 69 29 181 40
250 78 495 217 1162 299 1445 11 38 20 73 20 77 0 11 -16 9 -75 -7z"/>
<path d="M7510 9407 c0 -17 18 -120 40 -227 150 -722 208 -1050 306 -1720 9
-63 23 -145 31 -181 13 -64 16 -68 65 -98 44 -28 194 -136 208 -151 3 -3 34
-27 70 -55 36 -27 103 -81 150 -120 228 -191 386 -322 414 -345 28 -22 334
-288 346 -300 3 -3 43 -39 90 -80 47 -41 87 -77 90 -80 3 -3 34 -32 70 -65 36
-33 121 -112 190 -176 141 -131 180 -165 229 -199 32 -22 35 -22 47 -6 7 10
18 50 24 89 6 40 15 97 20 127 34 205 37 812 6 1053 -57 434 -147 700 -333
972 -116 171 -297 412 -337 450 -6 6 -49 53 -96 105 -384 430 -796 738 -1240
929 -117 51 -306 111 -347 111 -42 0 -43 -1 -43 -33z"/>
<path d="M6265 7490 c-247 -35 -449 -140 -633 -330 -229 -235 -312 -489 -282
-866 14 -178 37 -255 130 -419 114 -205 354 -402 585 -482 133 -46 505 -48
655 -3 152 45 327 148 435 257 109 109 150 168 229 330 67 137 71 163 71 458
0 285 -2 298 -67 430 -135 271 -384 492 -653 579 -139 44 -343 64 -470 46z"/>
<path d="M6335 4715 c-97 -43 -330 -138 -665 -270 -431 -169 -1248 -439 -1650
-545 -47 -12 -91 -24 -99 -26 -9 -3 10 -27 55 -68 380 -346 798 -596 1324
-790 165 -60 167 -61 410 -59 603 4 1246 109 1660 273 326 129 578 266 784
425 87 67 234 190 279 233 64 63 62 77 -15 101 -35 11 -256 85 -493 164 -520
175 -857 298 -1235 450 -157 63 -294 117 -305 120 -11 3 -33 -1 -50 -8z"/>
<path d="M3416 3764 c-321 -68 -984 -134 -1197 -118 -60 5 -88 3 -93 -5 -11
-17 60 -130 208 -331 58 -78 118 -152 250 -305 91 -107 360 -369 487 -475 68
-57 126 -106 129 -110 17 -18 228 -173 360 -262 360 -245 794 -462 1195 -598
261 -88 568 -162 830 -200 612 -88 698 -93 1085 -65 510 38 809 91 1244 220
581 172 1225 515 1701 904 330 270 773 737 966 1018 71 103 35 88 -271 -107
-69 -44 -136 -86 -150 -94 -57 -30 -147 -80 -175 -96 -36 -22 -271 -139 -340
-170 -27 -13 -79 -36 -115 -52 -153 -70 -383 -161 -549 -217 -68 -24 -133 -46
-145 -51 -72 -29 -398 -117 -588 -159 -292 -65 -306 -66 -958 -66 -621 0 -673
3 -875 46 -49 11 -254 53 -455 94 -461 94 -547 115 -770 188 -292 97 -597 244
-860 414 -89 58 -284 200 -335 244 -96 83 -223 198 -310 282 -115 110 -102
107 -269 71z"/>
</g>
</svg>
